# xmcd CD database file
#
# Track frame offsets:
#	150
#	31130
#	64398
#	96175
#	135440
#	149838
#	165393
#	181000
#	194173
#	210545
#	227660
#	244393
#
# Disc length: 3439 seconds
#
# Revision: 0
# Processed by: cddbd v1.5.1PL0 Copyright (c) Steve Scherf et al.
# Submitted via: CDex 1.51
#
DISCID=ae0d6d0c
DTITLE=Red Norvo - Just A Mood
DYEAR=1987
DGENRE=Blues
TTITLE0=Just A Mood
TTITLE1=Easy On The Eye
TTITLE2=The Night Is Blue
TTITLE3=Sunrise Blues
TTITLE4=Blue Room
TTITLE5=Blue Moon
TTITLE6=Serenade In Blue
TTITLE7=Blue Lou
TTITLE8=Roses Of Picardy
TTITLE9=Rose Room
TTITLE10=Blue Rose
TTITLE11=Rose Of The Rio Grande
EXTD=YEAR: 1987
EXTT0=
EXTT1=
EXTT2=
EXTT3=
EXTT4=
EXTT5=
EXTT6=
EXTT7=
EXTT8=
EXTT9=
EXTT10=
EXTT11=
PLAYORDER=
